<?xml version="1.0" encoding="UTF-8"?>
<!DOCTYPE svg PUBLIC "-//W3C//DTD SVG 1.1//EN" "http://www.w3.org/Graphics/SVG/1.1/DTD/svg11.dtd">
<!-- Creator: CorelDRAW X6 -->
<svg xmlns="http://www.w3.org/2000/svg" xml:space="preserve" width="115.078mm" height="150.645mm" version="1.1" style="shape-rendering:geometricPrecision; text-rendering:geometricPrecision; image-rendering:optimizeQuality; fill-rule:evenodd; clip-rule:evenodd"
viewBox="0 0 12847 16818"
 xmlns:xlink="http://www.w3.org/1999/xlink">
 <defs>
  <style type="text/css">
   <![CDATA[
    .str2 {stroke:blue;stroke-width:167.463}
    .str1 {stroke:red;stroke-width:167.463}
    .str0 {stroke:white;stroke-width:167.463}
    .fil0 {fill:#727271}
    .fil1 {fill:#FCFDFC}
    .fil2 {fill:#FEFEFE}
    .fil8 {fill:blue}
    .fil3 {fill:#666666}
    .fil7 {fill:red}
    .fil6 {fill:white}
    .fil5 {fill:url(#id1)}
    .fil4 {fill:url(#id2)}
   ]]>
  </style>
     <clipPath id="id0">
      <path d="M5913 5889l4441 0 0 4461 -4441 0 0 -4461z"/>
     </clipPath>
  <linearGradient id="id1" gradientUnits="userSpaceOnUse" x1="8133.57" y1="4481.29" x2="8133.57" y2="12042.6">
   <stop offset="0" style="stop-color:#E6E6E6"/>
   <stop offset="1" style="stop-color:#999999"/>
  </linearGradient>
  <linearGradient id="id2" gradientUnits="userSpaceOnUse" x1="12418.3" y1="11540.4" x2="3849.63" y2="4983.45">
   <stop offset="0" style="stop-color:black"/>
   <stop offset="0.278431" style="stop-color:#0C0C0C"/>
   <stop offset="0.54902" style="stop-color:#E6E6E6"/>
   <stop offset="0.811765" style="stop-color:#1E1E1E"/>
   <stop offset="1" style="stop-color:black"/>
  </linearGradient>
 </defs>
 <g id="Слой_x0020_1">
  <metadata id="CorelCorpID_0Corel-Layer"/>
  <g id="_469594680">
   <path class="fil0" d="M12420 15009c-8,44 -67,76 -84,104 -144,235 -274,451 -387,697 -501,-66 -250,-195 -102,-445 61,-104 95,-203 169,-297 40,-51 157,-126 185,-178 19,-36 -20,-70 17,-89 8,-4 -61,-220 -67,-237 -189,-527 -332,-1042 -506,-1483 -39,-99 -105,-334 -168,-416 -118,-151 -298,-219 -472,-326 -53,-32 -101,-115 -152,-148 -195,-129 -402,-210 -623,-341 -244,-144 -482,-346 -675,-475 -120,-80 -257,-109 -370,-193 -21,-15 -30,-73 -51,-89 -137,-104 -296,-169 -438,-267 -80,-54 -115,-147 -152,-177 -365,-303 -664,-575 -977,-965l0 0 -51 15c0,169 36,330 -33,430 -64,91 -874,299 -995,327 -53,11 -80,9 -91,15l0 0 -94 21c-46,8 -125,16 -161,20 -86,9 -240,25 -336,25 -179,-1 -356,19 -539,30 -107,7 -269,30 -409,-11 -62,-19 -113,-263 -308,-338 -49,321 -146,779 -202,1039 -86,396 -265,1053 -169,1483 11,48 34,281 34,281 -26,127 -83,254 -50,475 52,370 352,1638 151,1943 -66,100 -163,207 -219,311 -58,108 -56,246 -135,341 -27,33 -161,72 -236,60 -94,-16 135,-401 169,-475 85,-188 157,-302 236,-474 0,-5 0,-10 0,-15 0,-102 -6,-282 -17,-430 -30,-410 -128,-791 -169,-1305 -12,-154 -171,-309 -202,-445 -66,-295 -28,-533 -101,-786 -116,-403 -317,-794 -455,-1187 -80,-227 -168,-382 -168,-697 -3,16 0,-74 0,-74 -76,-39 -137,107 -203,119 -157,26 -196,-126 -354,-75 -122,39 -27,91 -269,75 31,57 75,107 128,152 -59,-41 -128,-95 -205,-170 10,-59 15,-113 9,-160 -12,-101 -110,-358 -134,-445 -71,-254 -65,-470 -118,-816 53,-16 89,-63 118,-74 -63,-266 -90,-484 -152,-712 0,6 17,-134 17,-134 -13,-62 -57,-220 -51,-267 17,-144 156,-285 202,-400 123,-307 192,-512 220,-830 24,-290 -4,-599 -17,-905 528,-69 592,-228 691,-653 -258,67 -224,173 -371,267 -268,171 -623,148 -910,297 -106,54 -181,166 -287,222 -68,36 -118,35 -219,45 214,-124 340,-324 472,-519 -314,-31 -433,192 -725,237 -103,16 -222,11 -303,-30 -176,-88 238,-302 320,-370 0,-1 13,-74 17,-89 -94,2 -234,0 -371,0 192,-215 508,-471 633,-653 282,-411 61,-492 547,-756 52,-29 102,-106 169,-119 162,-33 407,-6 488,0 -77,99 -41,108 118,119 218,13 417,37 506,207 497,-352 876,-955 1517,-1142 60,49 29,86 17,193 -54,452 -171,603 -560,761 -313,126 -636,204 -890,396 109,59 217,239 304,371 409,623 262,1658 471,2432 63,232 60,422 186,623 712,-60 1316,234 2005,296 516,47 927,-34 1365,-118 209,-41 382,-138 641,-119 190,14 345,119 488,178 23,9 47,3 68,15 662,378 1181,798 1495,1527 0,5 55,144 55,149 0,291 40,619 85,860 7,40 0,104 0,104 35,16 -15,30 16,44 0,34 -3,70 0,104 68,15 -46,71 34,89 14,47 17,119 17,119 12,35 16,54 34,104 5,14 47,67 50,74 23,57 4,104 17,133 156,348 531,651 877,831 114,59 274,71 387,133 58,32 52,163 68,238 98,466 178,893 353,1320 0,0 8,197 17,222 105,283 388,880 320,1246l0 0zm-9845 -4311c108,58 218,111 307,173 -64,367 -264,798 -405,1112 -29,63 -120,149 -151,238 -52,144 -41,333 -85,459 -33,96 -194,257 -252,386 -16,35 9,85 0,119 -99,344 -196,823 -354,1156 -47,99 -40,298 -118,416 -21,30 -61,9 -68,15 -46,35 -59,108 -101,148 -157,149 -313,278 -438,460 -141,-18 -214,-34 -303,-75 1,-4 -5,-48 17,-29 166,-209 526,-474 640,-668 11,-19 -7,-54 0,-74l0 0 34 0c3,-17 -4,-42 0,-59l0 0 33 -59c12,-37 25,-91 34,-119 15,-50 23,-75 34,-104 16,-46 8,-45 17,-74 0,-4 28,-17 0,-30 137,-314 267,-725 320,-1142 30,-2 -17,-84 17,-89l0 0 -68 -148c10,0 18,-13 25,-32 0,27 2,55 5,84l0 0 263 -170 0 -325c0,0 105,-92 193,-355l0 0 404 -1214zm-756 1571c0,-3 1,-5 2,-8l-1 6c0,0 0,1 -1,2zm2002 907c-36,-59 -68,-116 -80,-169 -66,-295 -28,-533 -101,-786 -116,-403 -317,-794 -455,-1187 -80,-227 -168,-382 -168,-697 -1,6 -2,-1 -2,-13 5,-25 10,-52 16,-80 0,0 -228,-348 -289,-603 0,0 -18,-332 210,-695 0,0 -114,85 -333,301 0,0 307,-842 1018,-811 0,0 -44,-247 -193,-386 0,0 -246,108 -518,456 0,0 26,-665 571,-695 0,0 -79,-163 -79,-255 0,0 -158,146 -351,324 0,0 -150,-201 -132,-657 0,0 132,-332 96,-841 0,-1 -70,-310 53,-665 0,0 298,-394 351,-765 59,80 70,173 59,261 -6,36 -30,72 -47,108 -12,41 -6,87 -6,128 59,11 117,-5 140,-61 0,77 18,159 -5,237 -24,77 -88,164 -36,242 12,15 65,-6 71,5 23,61 11,128 0,195 -6,67 -35,124 -53,191 -12,36 -23,72 -6,108 12,26 53,57 94,36 0,16 -6,36 12,52 0,0 46,200 -135,257 0,0 -59,165 216,134 0,0 -11,129 -187,201 0,0 -6,41 217,118 0,0 -88,124 -193,186l0 0 292 -11c0,0 -29,114 -146,181 0,0 -29,41 70,123 0,0 796,-46 1650,119 0,0 1340,273 2505,-170 61,-24 140,0 193,31 35,15 -18,51 -6,82 76,0 158,-10 234,5 6,5 -12,36 -6,52 18,25 47,41 82,51 29,5 70,-5 82,16 12,20 0,51 12,61 41,36 111,42 169,52 0,46 0,87 6,134 82,15 199,-5 240,77 12,21 12,46 6,72 -12,31 -58,15 -76,41 0,11 -18,26 0,36 59,26 134,22 178,42 88,38 185,69 246,139 35,30 88,92 44,123 -26,23 -105,-8 -123,16 -44,46 70,69 123,100 9,8 9,31 0,46 -17,16 -26,39 -17,54 35,47 114,54 149,93 35,31 -35,54 -62,77 0,8 0,16 0,24 44,54 114,77 150,131 44,69 -71,77 -106,124 -35,46 62,84 97,139 9,15 9,38 0,46 -44,31 -114,54 -88,116 26,61 123,62 149,108 27,38 9,85 -26,123 -18,24 -53,24 -79,39 -26,15 -18,70 0,100 17,39 79,47 132,70 61,31 35,131 8,178 -26,38 -149,38 -105,100 26,46 105,31 158,62 18,8 44,23 53,46 17,85 -106,70 -158,108 -18,8 -18,39 -18,62 0,0 0,70 237,131 0,0 -9,85 -132,155 1,0 97,70 202,46 0,0 -17,85 -123,170l0 0c0,0 18,108 264,232 0,0 -237,8 -755,-294 0,0 -930,-494 -1598,-1382 0,0 -175,-240 -351,-348 0,0 -8,54 44,186 0,0 -17,46 -123,15 0,0 -61,77 -70,247 0,0 -53,62 -149,-8 0,0 -44,24 -53,124 0,0 -79,-39 -167,-147 0,0 -52,47 27,356 0,0 -527,-649 -1018,-796 0,0 -44,8 -123,54l0 0 -70 -170c0,0 -18,147 -106,209 -88,61 -26,15 -26,15 0,0 -132,-347 -351,-525 0,0 -35,139 -167,293 0,0 -53,-7 -158,-394 0,0 -44,39 -88,217 0,0 -51,-112 -233,-332 62,80 318,466 -127,865 0,0 114,15 325,-93 0,0 -9,93 -237,232 0,0 9,69 237,69 0,0 9,78 -228,224 0,0 114,47 263,31 0,0 -61,101 -307,278 0,0 -79,448 -448,742 0,0 211,517 -17,1151 0,0 -79,69 -79,401l0 0 79 418 -141 236z"/>
   <path class="fil1" d="M1609 5153c255,23 316,-15 316,-15 -52,-77 -35,-139 -35,-139 132,-23 220,-62 220,-62 -53,-77 26,-100 26,-100 176,-16 88,-70 88,-70 491,-239 421,-602 421,-602 -96,-309 -570,-325 -570,-325 324,-46 395,-69 395,-69 -141,-31 -229,-93 -229,-93 299,0 492,8 492,8 -95,-27 -177,-50 -239,-66 -6,-1 -11,-1 -17,-1 -159,-11 -195,-20 -118,-119 -26,-2 -70,-6 -123,-10l-255 -4c-39,3 -76,7 -110,14 -67,13 -117,90 -169,119 -486,264 -265,345 -547,756 -125,182 -441,438 -633,653 137,0 277,2 371,0 -4,15 -17,89 -17,89 -82,68 -496,282 -320,370 81,41 200,46 303,30 292,-45 411,-268 725,-237 -4,6 -9,13 -13,19l153 -14c-97,-62 -115,-132 -115,-132l0 0zm-723 408l0 0c3,-2 6,-3 10,-5 -4,2 -7,3 -10,5zm11 -5c1,0 2,-1 3,-1 -1,0 -2,1 -3,1zm3 -1c0,0 0,0 0,0 0,0 0,0 0,0zm6 -3c3,-2 6,-3 9,-4 -3,1 -6,2 -9,4zm120 -50c1,0 1,0 2,0 -1,0 -1,0 -2,0zm28 -11c6,-2 13,-5 19,-7 -6,2 -13,5 -19,7zm20 -8c2,-1 3,-1 5,-2 -2,1 -3,1 -5,2zm8 -3c1,-1 3,-1 4,-2 -1,1 -3,1 -4,2zm10 -4c0,0 1,0 1,-1 0,1 -1,1 -1,1zm13 -6c3,-1 5,-2 7,-3 -2,1 -4,2 -7,3zm9 -3c1,-1 1,-1 2,-1 -1,0 -1,0 -2,1zm3 -2c1,0 1,0 2,0 -1,0 -1,0 -2,0zm4 -1c1,0 1,-1 2,-1 -1,0 -1,1 -2,1zm3 -1c0,-1 1,-1 2,-1 -1,0 -2,0 -2,1zm9 -4c1,0 3,-1 5,-2 -2,1 -4,2 -5,2zm8 -2c3,-2 6,-3 9,-4 -3,1 -6,2 -9,4zm14 -5c1,0 1,0 1,-1 0,0 0,1 -1,1zm18 -6c0,0 0,0 0,0 0,0 0,0 0,0zm11 -2c0,0 1,0 1,-1 0,1 -1,1 -1,1zm4 -1c0,0 0,0 0,0 0,0 0,0 0,0zm3 -1c0,0 1,0 1,0 0,0 -1,0 -1,0zm8 -1c0,0 0,0 0,0 0,0 0,0 0,0zm7 -1c0,0 0,0 0,-1 0,0 0,1 0,1z"/>
   <path class="fil1" d="M2078 7468c0,0 -30,-88 -47,82 0,0 -30,634 251,1030 0,0 -11,-144 223,-406 0,0 -340,-340 -427,-706l0 0z"/>
   <path class="fil1" d="M2101 10352c0,0 -105,170 -123,216 -18,46 -35,325 -35,325l0 0 -35 448 -35 571 -53 355c0,0 -140,124 -105,495l0 0 263 -170 0 -325c0,0 105,-92 193,-355l0 0 421 -1267c0,0 -175,16 -491,-293l0 0z"/>
   <path class="fil1" d="M556 15326l281 62 281 -633c-334,263 -562,571 -562,571l0 0z"/>
   <path class="fil1" d="M3944 15450l-333 726 351 16c0,0 -106,-464 -18,-742l0 0z"/>
   <path class="fil1" d="M11651 15751l228 93c-9,-456 228,-904 228,-904 -307,433 -456,811 -456,811l0 0z"/>
   <path class="fil0" d="M10466 8676c9,18 21,33 33,59 64,-2 -42,2 -53,1 -150,77 -293,-339 -452,-446 254,42 362,172 472,386l0 0z"/>
   <path class="fil1" d="M9772 11070c106,-85 123,-170 123,-170 -105,24 -202,-46 -202,-46 123,-70 132,-155 132,-155 -237,-61 -237,-131 -237,-131 0,-23 0,-54 18,-62 52,-38 175,-23 158,-108 -9,-23 -35,-38 -53,-46 -53,-31 -132,-16 -158,-62 -44,-62 79,-62 105,-100 27,-47 53,-147 -8,-178 -53,-23 -115,-31 -132,-70 -18,-30 -26,-84 0,-100 26,-15 61,-15 79,-39 35,-38 53,-85 26,-123 -26,-47 -123,-46 -149,-108 -26,-62 44,-85 88,-116 9,-8 9,-31 0,-46 -35,-55 -132,-93 -97,-139 35,-47 149,-55 106,-124 -36,-54 -106,-77 -150,-131 0,-8 0,-16 0,-24 27,-23 97,-46 62,-77 -35,-39 -114,-46 -149,-93 -9,-15 0,-38 17,-54 9,-15 9,-38 0,-46 -53,-31 -167,-54 -123,-100 18,-24 97,7 123,-16 44,-31 -9,-93 -44,-123 -61,-70 -158,-101 -246,-139 -44,-20 -119,-16 -178,-42 -18,-10 0,-25 0,-36 18,-26 64,-10 76,-41 6,-26 6,-51 -6,-72 -41,-83 -158,-62 -240,-77 -6,-47 -6,-88 -6,-134 -58,-11 -128,-16 -169,-52 -12,-10 0,-41 -12,-61 -12,-21 -53,-11 -82,-16 -35,-10 -64,-26 -82,-51 -6,-16 12,-47 6,-52 -76,-15 -158,-5 -234,-5 -12,-31 41,-67 6,-82 -53,-31 -132,-55 -193,-31 -1165,443 -2505,170 -2505,170 -854,-165 -1650,-119 -1650,-119 -99,-82 -70,-123 -70,-123 117,-67 146,-181 146,-181l0 0 -292 11c105,-62 193,-186 193,-186 -223,-77 -217,-118 -217,-118 176,-72 187,-201 187,-201 -275,31 -216,-134 -216,-134 181,-57 135,-257 135,-257 -18,-16 -12,-36 -12,-52 -41,21 -82,-10 -94,-36 -17,-36 -6,-72 6,-108 18,-67 47,-124 53,-191 11,-67 23,-134 0,-195 -6,-11 -59,10 -71,-5 -52,-78 12,-165 36,-242 23,-78 5,-160 5,-237 -23,56 -82,72 -140,61 0,-41 -6,-87 6,-128 17,-36 41,-72 47,-108 11,-88 0,-181 -59,-261 -53,371 -351,765 -351,765 -123,355 -53,665 -53,665 36,509 -96,841 -96,841 -18,456 132,657 132,657 193,-178 351,-324 351,-324 0,92 79,255 79,255 -545,30 -571,695 -571,695 272,-348 518,-456 518,-456 149,139 193,386 193,386 -711,-31 -1018,811 -1018,811 219,-216 333,-301 333,-301 -228,363 -210,695 -210,695 61,255 289,603 289,603 -61,270 -17,432 -17,432l0 0 88 394 158 417 193 472 184 764 44 263 105 247 176 -293 -79 -418c0,-332 79,-401 79,-401 228,-634 17,-1151 17,-1151 369,-294 448,-742 448,-742 246,-177 307,-278 307,-278 -149,16 -263,-31 -263,-31 237,-146 228,-224 228,-224 -228,0 -237,-69 -237,-69 228,-139 237,-232 237,-232 -211,108 -325,93 -325,93 445,-399 189,-785 127,-865 182,220 233,332 233,332 44,-178 88,-217 88,-217 105,387 158,394 158,394 132,-154 167,-293 167,-293 219,177 351,525 351,525 0,0 -62,47 26,-15 88,-62 106,-209 106,-209l0 0 70 170c79,-46 123,-54 123,-54 491,147 1018,796 1018,796 -79,-309 -27,-356 -27,-356 88,108 167,147 167,147 9,-100 53,-124 53,-124 96,70 149,8 149,8 9,-170 70,-247 70,-247 106,31 123,-15 123,-15 -53,-132 -44,-186 -44,-186 176,108 351,348 351,348 668,888 1598,1382 1598,1382 518,302 755,294 755,294 -246,-124 -264,-232 -264,-232l0 0z"/>
   <path class="fil2" d="M1264 2655c14,-74 67,-182 104,-240 54,87 154,169 216,240 74,84 97,158 159,264 10,17 38,58 45,77 19,49 65,131 59,180 -32,296 -99,198 -162,309 -141,246 -486,-505 -421,-830l0 0z"/>
   <path class="fil0" d="M8966 12888c9,10 87,117 67,133 -200,167 -366,438 -590,668 -155,159 -419,365 -573,563 -66,85 -86,168 -151,253 -74,94 -206,162 -287,252 -39,43 -45,107 -101,133 -205,94 -446,102 -624,163 -165,57 -227,179 -387,119 -265,-99 162,-201 303,-252 144,-53 291,-144 438,-193 68,-23 156,-10 219,-44 55,-31 1138,-1375 1096,-1528 -13,-45 -236,-220 -287,-282 -382,-465 -695,-834 -657,-1572 1,-21 -44,-200 0,-237 80,-69 294,-49 438,-74 162,-29 295,-124 472,-119 45,1 72,11 101,30 55,34 93,93 152,133 92,64 69,88 50,193 -45,242 -117,529 -67,875 45,315 209,585 388,786l0 0z"/>
   <path class="fil3" d="M849 5603c0,77 35,150 110,185 57,27 127,12 175,-23 88,-58 154,-135 189,-224 9,-23 13,-54 0,-70 -48,-58 -145,-31 -211,-4 -83,35 -166,66 -250,105 -9,7 -13,19 -13,31l0 0z"/>
   <path class="fil3" d="M4650 753c-192,0 -315,105 -413,260 -79,116 -149,283 -228,406 -26,47 -79,85 -114,132 -18,23 -44,46 -62,69 -52,70 -105,139 -184,193 -88,54 -202,141 -307,141 -62,-92 0,-252 -62,-344 -8,-8 -44,-8 -52,0 -284,248 -155,537 -220,792 -17,70 -35,139 -61,201 -62,132 -149,335 -237,458 -35,62 -70,132 -106,193 -35,47 -70,101 -105,147 -17,31 -44,70 -17,93 78,77 210,46 316,46 35,-8 61,-46 87,-46 106,0 141,-70 176,-132 35,-61 35,-131 61,-193 49,-98 101,-284 155,-382 187,-149 423,-126 533,-306 9,-15 17,-52 0,-74 -8,-8 -110,52 -127,59 -101,52 -126,30 -236,59 -8,2 -16,4 -25,5 37,-63 75,-126 113,-189 79,-132 228,-296 369,-381 304,-179 678,-160 956,-386 35,-23 53,-70 70,-116 -107,-10 -579,30 -596,15 -53,-31 -36,-144 -18,-198 26,-77 70,-162 123,-239 0,-11 188,-249 211,-283z"/>
   <path class="fil3" d="M2473 0c9,124 26,516 35,640 9,85 17,265 61,342 9,23 27,54 62,69 61,24 131,16 193,0 123,-31 202,-123 289,-208 27,-16 79,-16 79,-8 44,116 -87,252 -175,337 -193,209 -360,351 -535,575 -88,108 -79,224 -97,339 -44,248 -35,479 -61,727 -18,100 -27,418 -44,526 -18,54 -79,62 -132,62 -97,8 -193,31 -290,8 9,-70 -8,-131 9,-201 105,-409 123,-1052 -105,-1423 -18,-15 -18,-46 -35,-62 -106,-170 -97,-442 -106,-620 9,0 27,0 35,0 53,93 88,265 123,366 18,46 53,108 114,131 106,46 220,23 299,-47 44,-38 35,-92 44,-139 44,-247 9,-573 52,-821 9,-69 53,-297 88,-367 18,-23 53,-141 97,-156 0,-1 0,-16 0,-24l0 -46z"/>
   <path class="fil0" d="M10634 8424c-85,-105 -230,-231 -404,-252 -126,-16 -288,25 -388,-15 -124,-51 -250,-199 -371,-267 -348,-196 -764,-376 -1230,-445 -586,-87 -1173,198 -1820,222 -548,20 -1049,-191 -1500,-296 -160,-38 -456,-33 -573,-119 -122,-90 -263,-1031 -287,-1260 -49,-486 -74,-1084 -252,-1484 -76,-170 -205,-315 -304,-474 272,-164 727,-291 927,-519 204,-232 254,-639 270,-994 -402,104 -810,224 -1045,475 -131,138 -254,281 -404,400 -48,37 -32,27 -102,59 3,-8 6,-16 9,-24l-124 -26c-30,47 -69,89 -151,89 -26,0 -52,38 -87,46 -106,0 -238,31 -316,-46 -27,-23 0,-62 17,-93 22,-29 45,-62 67,-93l-26 -6c-4,7 -8,13 -12,20 -37,-5 -118,-30 -118,-30 0,-3 1,-7 1,-10l-110 -99c-6,51 -13,102 -21,156 -18,54 -79,62 -132,62 -97,8 -193,31 -290,8 9,-70 -8,-131 9,-201 31,-119 54,-238 66,-358l-43 -38c-8,7 -26,-23 -87,-98 -148,-185 -332,-346 -489,-519 -51,147 -129,303 -151,460 -67,462 161,707 320,1008 -141,87 -160,128 -303,469 -160,378 -495,537 -742,836 -69,83 -87,152 -67,282 1,12 -16,57 -17,45 1,21 16,92 17,89 -3,18 -35,64 -17,103 48,109 252,106 371,163 97,48 100,209 219,253 449,165 588,-328 1078,-238 58,375 125,865 0,1335 -72,272 -356,524 -370,831 -15,306 44,481 67,741 41,480 14,799 84,1216 32,195 98,348 118,534 19,181 -39,412 -50,579 -29,415 19,879 -85,1260 -30,110 -151,237 -185,341 -66,201 38,445 0,638 -28,-17 0,45 0,45 -144,462 -223,1041 -489,1423 -65,93 -192,167 -269,253 -267,291 -508,554 -843,786 266,128 281,60 84,326 273,-30 701,-13 927,-163 276,-184 206,-725 674,-549 107,-244 241,-553 287,-801 37,-208 48,-545 101,-756 34,-135 120,-496 219,-653 57,-91 202,-182 236,-282 58,-172 12,-250 67,-400 113,-306 403,-654 607,-905 166,316 372,769 404,1157 7,89 -53,254 -33,371 15,96 141,199 168,296 107,387 135,885 169,1291 15,189 97,433 50,652 -49,230 -326,774 -471,964 -108,140 -275,249 -371,401 256,53 270,-17 219,222 274,-33 693,-75 826,-237 143,-178 210,-609 320,-816 65,35 163,72 202,89 128,-758 -164,-1421 -236,-2135 -23,-222 2,-403 34,-579 7,-42 0,-104 0,-104 3,-8 19,-63 34,-59 0,0 -65,-198 -68,-222 -49,-330 79,-635 152,-905 63,-238 87,-482 135,-712 433,30 1001,-12 1483,-104 482,-92 718,-91 842,119 0,455 86,818 270,1112 164,263 411,464 607,697 66,79 113,225 202,282 7,5 -14,53 -17,59 -221,374 -555,705 -826,1038 -55,68 -98,171 -168,223 -204,146 -537,192 -776,297 -363,159 -607,414 -910,622 250,73 262,59 118,238 826,57 966,-178 1450,-445 61,-35 109,-93 168,-15 78,103 85,126 202,30 436,-359 660,-887 1029,-1306 275,-314 671,-576 910,-919 5,-8 33,-43 33,-45 15,-86 -354,-479 -404,-622 -138,-390 6,-694 67,-1053 271,149 513,335 775,489 486,285 1353,620 1618,1068 195,328 288,715 405,1097 52,174 274,643 236,831 -19,92 -168,215 -219,296 -110,173 -176,359 -287,534 -119,189 -366,350 -522,519 350,70 288,18 236,267 278,-27 609,-13 809,-148 164,-112 298,-702 522,-890 117,41 155,55 253,45 52,-641 -265,-1171 -438,-1706 -194,-593 -334,-1261 -439,-1883l0 0c-480,-133 -977,-402 -1162,-846 -283,-677 20,-1488 -169,-1824m-168 -519c9,18 21,33 33,59 64,-2 -42,2 -53,1 -150,77 -293,-339 -452,-446 254,42 362,172 472,386l0 0zm1954 6333c-8,44 -67,76 -84,104 -144,235 -274,451 -387,697 -501,-66 -250,-195 -102,-445 61,-104 95,-203 169,-297 40,-51 157,-126 185,-178 19,-36 -20,-70 17,-89 8,-4 -61,-220 -67,-237 -189,-527 -332,-1042 -506,-1483 -39,-99 -105,-334 -168,-416 -118,-151 -298,-219 -472,-326 -53,-32 -101,-115 -152,-148 -195,-129 -402,-210 -623,-341 -244,-144 -482,-346 -675,-475 -120,-80 -257,-109 -370,-193 -21,-15 -30,-73 -51,-89 -137,-104 -296,-169 -438,-267 -80,-54 -115,-147 -152,-177 -365,-303 -664,-575 -977,-965l0 0 -51 15c0,169 36,330 -33,430 -64,91 -874,299 -995,327 -53,11 -80,9 -91,15l0 0 -94 21c-46,8 -125,16 -161,20 -86,9 -240,25 -336,25 -179,-1 -356,19 -539,30 -107,7 -269,30 -409,-11 -62,-19 -113,-263 -308,-338 -49,321 -146,779 -202,1039 -86,396 -265,1053 -169,1483 11,48 34,281 34,281 -26,127 -83,254 -50,475 52,370 352,1638 151,1943 -66,100 -163,207 -219,311 -58,108 -56,246 -135,341 -27,33 -161,72 -236,60 -94,-16 135,-401 169,-475 85,-188 157,-302 236,-474 0,-5 0,-10 0,-15 0,-102 -6,-282 -17,-430 -30,-410 -128,-791 -169,-1305 -12,-154 -171,-309 -202,-445 -66,-295 -28,-533 -101,-786 -116,-403 -317,-794 -455,-1187 -80,-227 -168,-382 -168,-697 -3,16 0,-74 0,-74 -76,-39 -137,107 -203,119 -157,26 -196,-126 -354,-75 -122,39 -27,91 -269,75 31,57 75,107 128,152 178,120 273,111 273,111l0 0 -17 53c108,58 218,111 307,173 -64,367 -264,798 -405,1112 -29,63 -120,149 -151,238 -52,144 -41,333 -85,459 -33,96 -194,257 -252,386 -16,35 9,85 0,119 -99,344 -196,823 -354,1156 -47,99 -40,298 -118,416 -21,30 -61,9 -68,15 -46,35 -59,108 -101,148 -157,149 -313,278 -438,460 -141,-18 -214,-34 -303,-75 1,-4 -5,-48 17,-29 166,-209 526,-474 640,-668 11,-19 -7,-54 0,-74l0 0 34 0c3,-17 -4,-42 0,-59l0 0 33 -59c12,-37 25,-91 34,-119 15,-50 23,-75 34,-104 16,-46 8,-45 17,-74 0,-4 28,-17 0,-30 137,-314 267,-725 320,-1142 30,-2 -17,-84 17,-89l0 0 -68 -148c10,0 18,-13 25,-32 -8,-286 95,-396 109,-409 0,-3 1,-5 2,-8l52 -349 35 -571 35 -448c0,0 17,-279 35,-325 18,-46 123,-216 123,-216l0 0c4,4 8,8 13,12 10,-59 15,-113 9,-160 -12,-101 -110,-358 -134,-445 -71,-254 -65,-470 -118,-816 53,-16 89,-63 118,-74 -63,-266 -90,-484 -152,-712 0,6 17,-134 17,-134 -13,-62 -57,-220 -51,-267 17,-144 156,-285 202,-400 123,-307 192,-512 220,-830 24,-290 -4,-599 -17,-905 528,-69 592,-228 691,-653 -258,67 -224,173 -371,267 -268,171 -623,148 -910,297 -106,54 -181,166 -287,222 -68,36 -118,35 -219,45 214,-124 340,-324 472,-519 -314,-31 -433,192 -725,237 -103,16 -222,11 -303,-30 -176,-88 238,-302 320,-370 0,-1 13,-74 17,-89 -94,2 -234,0 -371,0 192,-215 508,-471 633,-653 282,-411 61,-492 547,-756 52,-29 102,-106 169,-119 162,-33 407,-6 488,0 -77,99 -41,108 118,119 218,13 417,37 506,207 497,-352 876,-955 1517,-1142 60,49 29,86 17,193 -54,452 -171,603 -560,761 -313,126 -636,204 -890,396 109,59 217,239 304,371 409,623 262,1658 471,2432 63,232 60,422 186,623 712,-60 1316,234 2005,296 516,47 927,-34 1365,-118 209,-41 382,-138 641,-119 190,14 345,119 488,178 23,9 47,3 68,15 662,378 1181,798 1495,1527 0,5 55,144 55,149 0,291 40,619 85,860 7,40 0,104 0,104 35,16 -15,30 16,44 0,34 -3,70 0,104 68,15 -46,71 34,89 14,47 17,119 17,119 12,35 16,54 34,104 5,14 47,67 50,74 23,57 4,104 17,133 156,348 531,651 877,831 114,59 274,71 387,133 58,32 52,163 68,238 98,466 178,893 353,1320 0,0 8,197 17,222 105,283 388,880 320,1246l0 0zm-3454 -2121c9,10 87,117 67,133 -200,167 -366,438 -590,668 -155,159 -419,365 -573,563 -66,85 -86,168 -151,253 -74,94 -206,162 -287,252 -39,43 -45,107 -101,133 -205,94 -446,102 -624,163 -165,57 -227,179 -387,119 -265,-99 162,-201 303,-252 144,-53 291,-144 438,-193 68,-23 156,-10 219,-44 55,-31 1138,-1375 1096,-1528 -13,-45 -236,-220 -287,-282 -382,-465 -695,-834 -657,-1572 1,-21 -44,-200 0,-237 80,-69 294,-49 438,-74 162,-29 295,-124 472,-119 45,1 72,11 101,30 55,34 93,93 152,133 92,64 69,88 50,193 -45,242 -117,529 -67,875 45,315 209,585 388,786l0 0zm-7702 -10233c14,-74 67,-182 104,-240 54,87 154,169 216,240 74,84 97,158 159,264 10,17 38,58 45,77 19,49 65,131 59,180 -32,296 -99,198 -162,309 -141,246 -486,-505 -421,-830l0 0zm-415 2948c0,77 35,150 110,185 57,27 127,12 175,-23 88,-58 154,-135 189,-224 9,-23 13,-54 0,-70 -48,-58 -145,-31 -211,-4 -83,35 -166,66 -250,105 -9,7 -13,19 -13,31l0 0z"/>
   <path class="fil3" d="M1779 4391c21,-33 52,-145 94,-168 215,112 79,204 -94,168l0 0z"/>
   <path class="fil0" d="M1871 4123c57,-75 153,-119 17,-148 -135,54 -123,196 -186,326 -188,387 767,128 523,-148 -75,-85 -230,-66 -354,-30l0 0zm-92 268c21,-33 52,-145 94,-168 215,112 79,204 -94,168l0 0z"/>
   <path class="fil0" d="M1308 2527c163,235 363,593 468,875 29,-26 55,-74 71,-226 6,-49 -40,-131 -59,-180 -7,-19 -35,-60 -45,-77 -62,-106 -85,-180 -159,-264 -62,-71 -162,-153 -216,-240 -18,29 -40,69 -60,112z"/>
   <path class="fil4" d="M5020 7385l-11 -56 -11 -55 -11 -56 -12 -56 -11 -56 -11 -55 -11 -56 -11 -56 -11 -55 -11 -56 -12 -56 -11 -55 -11 -56 -11 -56 -11 -56 -11 -55 -11 -56 -11 -56 -12 -56 -11 -56 -11 -55 -11 -56 -11 -56 -11 -55 -11 -56 -11 -56 -12 -56 -11 -55 -11 -56 -11 -56 -11 -56 -11 -55 -11 -56 -11 -56 -12 -56 -11 -55 -11 -56 -11 -56 -11 -55 -11 -56 -11 -56 -11 -55 -12 -56 -11 -56 -11 -56 -11 -55 -11 -56 -11 -56 -11 -56 -11 -55 -12 -56 -11 -56 -11 -56 -4 -18 190 0 73 0 147 0c81,0 162,0 242,0 122,-1 243,-2 364,-4 112,-2 223,-4 335,-8 100,-3 200,-7 300,-12 91,-5 182,-10 273,-17 81,-6 163,-12 246,-20 74,-7 149,-14 225,-23 69,-8 138,-16 207,-25 64,-9 128,-18 193,-28 59,-9 119,-19 180,-29 56,-10 112,-20 169,-31 53,-10 107,-21 161,-32 50,-10 101,-21 153,-33 48,-11 97,-22 145,-34 35,-8 70,-17 105,-25l1 0c176,42 348,79 518,112 362,68 711,114 1052,145 244,22 483,37 721,46 163,7 325,11 487,13 139,2 279,4 418,4 132,1 264,1 397,1l37 0 55 0 21 0 -3 15 -10 53 -11 53 -10 52 -11 53 -10 53 -11 52 -10 53 -11 53 -10 53 -11 52 -10 53 -11 53 -10 53 -11 52 -11 53 -10 53 -11 53 -10 52 -11 53 -10 53 -11 53 -10 52 -11 53 -10 53 -11 52 -10 53 -11 53 -10 53 -11 52 -10 53 -11 53 -11 53 -10 52 -11 53 -10 53 -11 53 -10 52 -11 53 -10 53 -11 52 -10 53 -11 53 -10 53 -11 52 -10 53 -11 53 -10 53 -11 52 -10 53 -11 53 -11 53 -10 52 -11 53 -10 53 -11 52 -10 53 -11 53 -10 53 -11 52 -10 53 -11 53 -10 53 -11 52 -10 53 -11 53 -10 52 -11 53 -10 53 -11 53 -11 52 -10 53c-4,18 -7,35 -11,53l-30 150 -10 54 -5 21c-5,26 -10,51 -15,76 -6,25 -11,50 -17,75 -5,25 -11,50 -17,75 -5,25 -11,50 -17,74 -6,26 -13,51 -19,75 -6,25 -13,50 -19,75 -7,25 -13,50 -20,75 -7,25 -14,49 -21,74 -7,25 -15,50 -22,74 -8,25 -15,50 -23,74 -8,25 -16,50 -24,74 -8,25 -16,50 -25,74 -8,25 -17,50 -26,74 -9,25 -17,49 -27,74 -9,24 -18,49 -28,73 -9,25 -19,49 -29,73 -10,25 -20,49 -31,73 -10,25 -21,49 -31,73 -11,25 -22,49 -34,73 -11,25 -22,49 -34,72 -12,25 -24,49 -36,73 -13,24 -25,48 -38,72 -13,24 -26,48 -39,72 -14,24 -27,48 -41,71 -14,24 -28,48 -43,72 -15,24 -30,48 -45,71 -15,24 -30,48 -46,71 -16,24 -32,47 -49,70 -17,24 -33,47 -50,70 -18,24 -36,47 -54,71 -18,23 -36,46 -55,69 -19,24 -39,47 -58,69 -20,24 -40,47 -60,69 -21,24 -42,46 -63,69 -22,23 -44,46 -66,68 -23,23 -46,46 -69,68 -23,23 -47,45 -71,67 -25,23 -50,46 -74,68 -26,22 -52,44 -77,66 -27,22 -53,45 -80,66 -27,23 -55,45 -82,66 -28,22 -56,44 -85,66 -28,22 -57,44 -86,65 -30,22 -59,44 -88,65 -30,22 -60,44 -89,65l-73 53 -17 12 -59 42 -29 23c-29,22 -57,44 -84,66 -28,22 -56,44 -83,66 -27,22 -54,44 -81,66 -26,22 -52,44 -78,66 -25,23 -50,45 -74,67 -24,23 -48,45 -72,68 -22,22 -45,45 -67,68 -21,22 -42,45 -63,68 -20,23 -40,46 -59,69 -13,16 -26,33 -39,49l0 0c-16,-20 -32,-41 -49,-61 -25,-30 -51,-59 -77,-88 -28,-30 -57,-60 -86,-89 -31,-31 -63,-61 -95,-90 -34,-31 -69,-62 -104,-92 -36,-31 -74,-62 -111,-93 -39,-31 -78,-62 -118,-93 -28,-22 -57,-45 -86,-67l-38 -28 -41 -29 -91 -67c-43,-31 -87,-63 -131,-95 -41,-31 -83,-63 -125,-95 -40,-30 -80,-62 -120,-94 -38,-30 -75,-61 -113,-92 -35,-30 -70,-61 -105,-93 -33,-29 -66,-59 -99,-90 -30,-30 -61,-60 -91,-90 -29,-29 -57,-59 -86,-90 -26,-28 -53,-58 -79,-88 -25,-28 -49,-58 -74,-87 -23,-29 -46,-58 -69,-87 -22,-28 -43,-57 -65,-86 -20,-28 -40,-57 -60,-86 -19,-28 -39,-56 -57,-85 -18,-28 -36,-56 -54,-85 -17,-28 -33,-56 -50,-85 -16,-27 -32,-55 -48,-83 -15,-28 -30,-55 -44,-84 -15,-27 -29,-55 -43,-83 -13,-27 -27,-55 -40,-83 -13,-27 -25,-54 -38,-82 -12,-28 -24,-55 -36,-83 -11,-27 -23,-54 -34,-82 -11,-27 -22,-54 -32,-82 -11,-27 -21,-54 -31,-81 -10,-27 -20,-54 -29,-82 -10,-26 -19,-53 -28,-81 -9,-27 -18,-54 -27,-81 -8,-27 -17,-53 -25,-81 -8,-26 -16,-53 -24,-80 -8,-27 -15,-53 -23,-81 -7,-26 -14,-53 -21,-80 -7,-27 -14,-53 -21,-80 -7,-27 -13,-53 -20,-80 -6,-26 -12,-53 -18,-80 -7,-26 -13,-53 -18,-80 -6,-26 -12,-53 -17,-80 -5,-22 -10,-45 -15,-69l-2 -10 -16 -80 -15 -79 -16 -80 -16 -79 -16 -80 -16 -79 -16 -80 -16 -79 -16 -80 -15 -79 -16 -80 -16 -79c-6,-27 -11,-53 -16,-80z"/>
   <path class="fil5" d="M5448 7467l-10 -50 -9 -51 -10 -50 -9 -51 -10 -51 -10 -50 -9 -51 -10 -50 -9 -51 -10 -50 -10 -51 -9 -50 -10 -51 -9 -50 -10 -51 -10 -50 -9 -51 -10 -50 -9 -51 -10 -51 -10 -50 -9 -50 -10 -51 -9 -50 -10 -51 -10 -50 -9 -51 -10 -50 -9 -51 -10 -50 -10 -51 -9 -51 -10 -50 -9 -51 -10 -50 -10 -51 -9 -50 -10 -51 -9 -50 -10 -51 -10 -50 -9 -51 -10 -50 -9 -51 -10 -51 -10 -50 -9 -51 -10 -50 -9 -51 -10 -50 -10 -51 -9 -50 -10 -51 -3 -16 163 0 63 0 127 0c70,0 140,0 209,-1 105,0 210,-1 314,-3 97,-1 193,-4 289,-7 86,-3 172,-7 259,-11 78,-4 156,-9 235,-15 70,-6 141,-12 212,-19 64,-6 129,-13 194,-20 59,-7 119,-15 179,-23 55,-8 110,-16 166,-25 51,-9 103,-17 155,-27 49,-9 97,-18 146,-28 46,-9 92,-19 139,-29 44,-9 87,-19 132,-30 41,-9 83,-20 125,-30 30,-8 60,-16 90,-24l1 0c152,39 301,73 447,102 312,62 613,104 908,132 210,20 416,33 622,42 140,5 280,9 419,11 120,2 241,3 361,4 114,0 228,1 342,1l32 0 48 0 18 0 -3 13 -9 48 -9 48 -9 48 -9 48 -9 48 -9 47 -9 48 -9 48 -9 48 -9 47 -10 48 -9 48 -9 48 -9 48 -9 48 -9 47 -9 48 -9 48 -9 48 -9 47 -9 48 -9 48 -9 48 -10 48 -9 47 -9 48 -9 48 -9 48 -9 48 -9 48 -9 47 -9 48 -9 48 -9 48 -9 48 -9 47 -10 48 -9 48 -9 48 -9 48 -9 47 -9 48 -9 48 -9 48 -9 48 -9 47 -9 48 -9 48 -10 48 -9 48 -9 47 -9 48 -9 48 -9 48 -9 48 -9 48 -9 47 -9 48 -9 48 -9 48 -9 47 -10 48 -9 48 -9 48 -9 48 -9 47 -9 48 -9 48 -9 48 -9 48 -9 47c-3,16 -6,32 -9,48l-26 137 -10 49 -3 19c-5,23 -9,46 -14,68 -4,23 -9,46 -14,68 -5,23 -9,46 -14,68 -5,23 -11,45 -16,68 -5,23 -10,45 -16,68 -5,22 -11,45 -16,67 -6,23 -12,46 -18,68 -6,23 -12,45 -18,67 -6,23 -12,45 -19,68 -6,22 -13,45 -19,67 -7,22 -14,45 -21,67 -7,23 -14,45 -21,67 -8,23 -15,45 -23,67 -7,22 -15,45 -23,67 -8,22 -16,44 -24,66 -8,22 -17,45 -25,66 -9,23 -18,45 -27,67 -9,22 -18,44 -27,66 -10,22 -19,44 -29,66 -10,22 -20,44 -30,66 -10,22 -20,44 -31,65 -11,22 -21,44 -32,65 -11,22 -23,44 -34,66 -12,22 -24,43 -35,64 -13,22 -25,44 -37,65 -13,22 -26,44 -39,65 -13,21 -27,43 -40,64 -14,22 -28,43 -42,64 -15,21 -29,43 -44,63 -15,22 -30,43 -46,64 -15,21 -31,42 -47,63 -17,22 -34,42 -50,63 -18,21 -35,42 -52,63 -18,21 -37,41 -55,62 -18,21 -37,41 -56,61 -20,21 -40,42 -60,62 -20,21 -41,41 -61,61 -21,21 -43,41 -64,61 -22,20 -44,41 -67,60 -22,21 -45,41 -68,60 -24,21 -47,40 -71,60 -24,20 -49,40 -73,60 -25,20 -50,39 -75,59 -25,20 -50,39 -76,59 -25,20 -51,39 -77,59l-62 47 -15 11 -51 39 -25 20c-24,20 -49,40 -72,60 -25,20 -48,40 -72,60 -23,20 -46,40 -69,60 -23,20 -46,40 -68,60 -21,20 -43,40 -64,61 -21,20 -41,40 -61,61 -20,20 -39,41 -58,61 -19,21 -37,42 -55,63 -17,20 -34,41 -51,62 -11,15 -22,30 -33,45l0 0c-14,-19 -28,-38 -43,-56 -21,-27 -44,-54 -66,-80 -24,-27 -49,-54 -74,-80 -27,-28 -54,-55 -82,-82 -29,-28 -59,-56 -90,-84 -31,-28 -63,-56 -96,-84 -33,-28 -67,-56 -101,-84 -25,-20 -49,-41 -74,-61l-34 -25 -35 -27 -78 -60c-38,-28 -75,-57 -113,-86 -36,-28 -72,-57 -108,-86 -35,-28 -69,-56 -103,-85 -33,-28 -65,-56 -98,-84 -30,-28 -60,-55 -91,-84 -28,-27 -56,-54 -84,-82 -27,-27 -53,-54 -79,-82 -25,-26 -50,-53 -74,-81 -23,-26 -46,-53 -68,-80 -22,-26 -43,-52 -64,-79 -20,-26 -40,-52 -60,-79 -19,-25 -37,-51 -56,-78 -17,-25 -35,-51 -52,-78 -16,-25 -33,-51 -49,-77 -16,-25 -31,-51 -46,-77 -15,-25 -29,-50 -44,-76 -13,-25 -27,-51 -41,-76 -13,-25 -26,-50 -38,-76 -13,-25 -25,-50 -37,-76 -11,-24 -23,-49 -34,-75 -11,-24 -22,-49 -33,-74 -11,-25 -21,-50 -31,-75 -10,-25 -20,-49 -30,-74 -9,-25 -18,-50 -27,-75 -9,-24 -18,-49 -27,-74 -9,-24 -17,-49 -25,-73 -8,-25 -16,-49 -24,-74 -8,-24 -16,-49 -23,-73 -8,-25 -15,-49 -22,-74 -7,-24 -14,-48 -21,-73 -6,-24 -13,-48 -19,-72 -7,-25 -13,-49 -19,-74 -6,-23 -12,-48 -18,-72 -6,-24 -11,-48 -17,-73 -5,-23 -11,-48 -16,-72 -5,-24 -10,-48 -15,-72 -5,-24 -10,-48 -15,-73 -4,-20 -8,-41 -12,-62l-2 -10 -14 -72 -13 -72 -14 -72 -14 -72 -14 -72 -13 -72 -14 -73 -14 -71 -13 -72 -14 -72 -14 -73 -13 -72c-5,-24 -10,-48 -14,-72z"/>
   <g>
    <g style="clip-path:url(#id0)">
     <image x="5913" y="5889" width="4441" height="4461" xlink:href="LOGO_DOTS_SVG_Images\LOGO_DOTS_SVG_ImgID1.png"/>
    </g>
   </g>
   <g>
    <ellipse class="fil6 str0" cx="6518" cy="7606" rx="239" ry="250"/>
    <ellipse class="fil6 str0" cx="6518" cy="5999" rx="239" ry="250"/>
    <ellipse class="fil6 str0" cx="8126" cy="7606" rx="239" ry="250"/>
    <ellipse class="fil6 str0" cx="8126" cy="5999" rx="239" ry="250"/>
    <ellipse class="fil6 str0" cx="9734" cy="7606" rx="239" ry="250"/>
    <ellipse class="fil6 str0" cx="9734" cy="5999" rx="239" ry="250"/>
    <ellipse class="fil6 str0" cx="6518" cy="9213" rx="239" ry="250"/>
    <ellipse class="fil6 str0" cx="8126" cy="9213" rx="239" ry="250"/>
    <ellipse class="fil6 str0" cx="9734" cy="9213" rx="239" ry="250"/>
    <rect class="fil6" transform="matrix(0.579589 -0.579589 0.0271417 0.0271417 8085.58 9172.53)" width="3009" height="3007"/>
    <rect class="fil6" transform="matrix(0.579589 0.579589 0.0271417 -0.0271417 8085.58 6039.52)" width="3009" height="3007"/>
    <rect class="fil6" transform="matrix(0.579589 -0.579589 0.0271417 0.0271417 6341.86 7701.61)" width="3009" height="3007"/>
   </g>
   <g>
    <ellipse class="fil7 str1" cx="6518" cy="7606" rx="239" ry="250"/>
    <ellipse class="fil8 str2" cx="6518" cy="5999" rx="239" ry="250"/>
    <ellipse class="fil8 str2" cx="8126" cy="7606" rx="239" ry="250"/>
    <ellipse class="fil7 str1" cx="8126" cy="5999" rx="239" ry="250"/>
    <ellipse class="fil7 str1" cx="9734" cy="7606" rx="239" ry="250"/>
    <ellipse class="fil8 str2" cx="9734" cy="5999" rx="239" ry="250"/>
    <ellipse class="fil8 str2" cx="6518" cy="9213" rx="239" ry="250"/>
    <ellipse class="fil7 str1" cx="8126" cy="9213" rx="239" ry="250"/>
    <ellipse class="fil8 str2" cx="9734" cy="9213" rx="239" ry="250"/>
    <rect class="fil7 str1" transform="matrix(0.579589 -0.579589 0.0271417 0.0271417 8085.58 9172.53)" width="3009" height="3007"/>
    <rect class="fil7 str1" transform="matrix(0.579589 0.579589 0.0271417 -0.0271417 8085.58 6039.52)" width="3009" height="3007"/>
    <rect class="fil7 str1" transform="matrix(0.579589 -0.579589 0.0271417 0.0271417 6341.86 7701.61)" width="3009" height="3007"/>
   </g>
  </g>
 </g>
</svg>
